<svg width="100" height="50" viewBox="0 0 118 45" fill="none" xmlns="http://www.w3.org/2000/svg">
<path d="M12 0H17.6V28.7C17.6 32 18.4 34.5 20.1 36.3C21.9 38.2 24.5 39.2 27.1 39C29.8 39.1 32.4 38.2 34.3 36.3C36 34.5 36.9 32 36.9 28.6C37.3 23.3 33.3 18.6 28 18.2C27.5 18.2 27 18.2 26.6 18.2C24.1 18.1 21.7 18.9 19.8 20.4V15C22.1 13.8 24.6 13.1 27.2 13.1C31.3 13 35.2 14.5 38.1 17.4C41 20.3 42.4 24 42.4 28.7C42.4 33.6 40.9 37.5 37.9 40.2C34.8 43 30.7 44.4 26.6 44.3C22.6 44.5 18.8 42.9 16 40.1C13.3 37.3 12 33.5 12 28.7V0Z" fill="white"></path>
<path d="M73.9 43.7H63.2C58.6 43.7 55.3 42.9999 53.3 41.5999C51.7 40.5999 50.5 39.0999 49.9 37.2999C49.4 35.0999 49.1 32.9 49.2 30.6V13.7H54.7V30.5C54.7 31.3 54.7 31.9 54.8 32.4C54.9 33.1 55 33.8 55.2 34.4C55.4 35.1 55.8 35.8 56.3 36.4C56.9 37 57.5 37.4999 58.3 37.7999C59.3 38.1999 60.4 38.4 61.5 38.4H68.6V13.7H74L73.9 43.7Z" fill="white"></path>
<path d="M99 13.7H105.1L97.5 26.7C102.6 28.1 105.2 32.3 105.2 39.2V43.7H99.7V39.1C99.8 36.7 98.9 34.3 97.2 32.6C95.6 31.1 93.2 30.3 90.2 30.3C89.2 30.3 88.2 30.4 87.3 30.5V43.6H81.8V0H87.3V25.6C89 25.4 90.8 25.4 92.5 25.6L99 13.7Z" fill="white"></path>
<path d="M6 22.2C6 23.9 4.7 25.2 3 25.2C1.3 25.2 0 23.9 0 22.2C0 20.5 1.3 19.2 3 19.2C4.7 19.2 6 20.5 6 22.2Z" fill="white"></path>
<path d="M115.6 22.2C115.6 23.9 114.3 25.2 112.6 25.2C110.9 25.2 109.6 23.9 109.6 22.2C109.6 20.5 110.9 19.2 112.6 19.2C114.3 19.2 115.6 20.5 115.6 22.2Z" fill="white"></path>
</svg>